<?xml version="1.0" standalone="no"?>
<!DOCTYPE svg PUBLIC "-//W3C//DTD SVG 20010904//EN"
 "http://www.w3.org/TR/2001/REC-SVG-20010904/DTD/svg10.dtd">
<svg version="1.0" xmlns="http://www.w3.org/2000/svg"
 width="1024.000000pt" height="1024.000000pt" viewBox="0 0 1024.000000 1024.000000"
 preserveAspectRatio="xMidYMid meet">
<metadata>
Created by potrace 1.11, written by Peter Selinger 2001-2013
</metadata>
<g transform="translate(0.000000,1024.000000) scale(0.100000,-0.100000)"
fill="#000000" stroke="none">
<path d="M4900 9613 c-1740 -93 -3259 -1163 -3934 -2772 -284 -675 -398 -1454
-321 -2189 161 -1528 1090 -2868 2470 -3562 497 -250 993 -394 1575 -456 190
-20 627 -23 815 -5 717 69 1353 277 1950 639 771 467 1402 1180 1773 2002 501
1112 530 2373 81 3503 -568 1427 -1839 2480 -3341 2766 -331 63 -741 92 -1068
74z m521 -353 c424 -33 827 -123 1209 -273 149 -58 570 -262 570 -275 0 -4
-1082 -1089 -2405 -2412 l-2405 -2405 0 -267 0 -268 2165 0 2165 0 -2 -1041
-3 -1041 -100 -39 c-318 -124 -671 -210 -1055 -256 -199 -24 -665 -24 -870 0
-199 23 -357 51 -529 92 -1425 342 -2572 1417 -3008 2820 -73 233 -125 484
-160 765 -25 204 -25 702 0 915 114 957 525 1806 1201 2481 704 702 1601 1116
2601 1203 144 12 469 13 626 1z m2505 -1081 c666 -604 1133 -1451 1289 -2338
46 -267 59 -416 59 -721 0 -281 -12 -456 -47 -660 l-13 -75 -717 -3 -717 -2 0
1960 c0 1763 2 1960 15 1952 9 -4 68 -55 131 -113z m-1206 -2354 l0 -1445
-1497 0 -1498 0 145 143 c80 79 406 395 725 703 319 307 897 865 1285 1239
814 785 834 805 838 805 1 0 2 -650 2 -1445z m2101 -2601 c-211 -403 -442
-716 -765 -1039 -105 -105 -210 -206 -233 -224 l-43 -33 0 716 0 716 556 0
556 0 -71 -136z"/>
</g>
</svg>
