<?xml version="1.0" standalone="no"?>
<!DOCTYPE svg PUBLIC "-//W3C//DTD SVG 20010904//EN"
 "http://www.w3.org/TR/2001/REC-SVG-20010904/DTD/svg10.dtd">
<svg version="1.0" xmlns="http://www.w3.org/2000/svg"
 width="700.000000pt" height="700.000000pt" viewBox="0 0 700.000000 700.000000"
 preserveAspectRatio="xMidYMid meet">
<metadata>
Created by potrace 1.11, written by Peter Selinger 2001-2013
</metadata>
<g transform="translate(0.000000,700.000000) scale(0.100000,-0.100000)"
fill="#000000" stroke="none">
<path d="M0 3500 l0 -3500 3500 0 3500 0 0 3500 0 3500 -3500 0 -3500 0 0
-3500z m3835 3230 c689 -77 1325 -358 1820 -806 335 -303 572 -615 765 -1009
220 -448 324 -903 324 -1415 0 -494 -100 -943 -304 -1376 -167 -354 -361 -627
-649 -915 -288 -288 -561 -482 -915 -649 -433 -204 -882 -304 -1376 -304 -512
0 -967 104 -1415 324 -526 258 -955 631 -1281 1115 -645 958 -730 2186 -224
3220 170 347 364 617 637 887 270 268 528 452 868 618 368 180 755 285 1180
320 127 10 438 5 570 -10z"/>
<path d="M3250 6564 c-109 -10 -284 -37 -390 -60 -1182 -254 -2110 -1182
-2364 -2364 -51 -238 -60 -335 -60 -640 0 -305 9 -402 60 -640 156 -726 570
-1371 1169 -1820 418 -313 888 -506 1430 -587 171 -25 639 -25 810 0 543 81
1010 273 1430 588 598 448 1013 1093 1169 1819 51 238 60 335 60 640 0 305 -9
402 -60 640 -252 1174 -1171 2099 -2344 2360 -213 48 -344 62 -610 65 -140 1
-275 1 -300 -1z m496 -235 c318 -30 599 -102 880 -224 130 -56 294 -141 294
-153 0 -4 -740 -747 -1645 -1652 l-1645 -1645 0 -172 0 -173 1480 0 1480 0 0
-717 0 -718 -118 -43 c-152 -57 -383 -115 -563 -143 -209 -33 -609 -33 -818 0
-773 120 -1439 525 -1892 1151 -268 369 -439 788 -510 1251 -33 209 -33 609 0
818 96 620 368 1159 806 1596 367 368 806 619 1301 746 137 34 363 73 484 82
108 8 365 6 466 -4z m1664 -730 c420 -376 726 -900 860 -1472 74 -315 90 -744
38 -1059 l-11 -68 -493 0 -494 0 0 1340 c0 737 2 1340 5 1340 3 0 46 -36 95
-81z m-823 -2596 c-2 -2 -462 -2 -1023 -1 l-1018 3 1019 985 1020 985 3 -984
c1 -541 1 -986 -1 -988z m1483 -705 c0 -18 -102 -206 -172 -317 -106 -166
-244 -337 -399 -492 -80 -81 -155 -152 -167 -158 l-22 -12 0 489 c0 269 3 492
7 495 3 4 174 7 380 7 277 0 373 -3 373 -12z"/>
</g>
</svg>
